<?xml version="1.0" standalone="no"?>
<!DOCTYPE svg PUBLIC "-//W3C//DTD SVG 20010904//EN"
 "http://www.w3.org/TR/2001/REC-SVG-20010904/DTD/svg10.dtd">
<svg version="1.0" xmlns="http://www.w3.org/2000/svg"
 width="360.000000pt" height="360.000000pt" viewBox="0 0 360.000000 360.000000"
 preserveAspectRatio="xMidYMid meet">
<metadata>
Created by potrace 1.11, written by Peter Selinger 2001-2013
</metadata>
<g transform="translate(0.000000,360.000000) scale(0.100000,-0.100000)"
fill="#000000" stroke="none">
<path d="M0 2290 c0 -1241 1 -1310 18 -1310 9 0 107 7 217 15 110 8 214 14
230 14 54 -2 -65 -21 -125 -20 -30 0 -71 -4 -90 -8 l-35 -9 37 -1 c20 -1 40
-6 44 -12 6 -11 -92 -119 -108 -119 -20 0 -4 21 48 63 53 45 54 46 30 53 -13
3 -54 3 -90 0 -66 -5 -94 9 -33 17 17 3 5 3 -28 1 -32 -2 -64 -9 -69 -14 -6
-6 -18 -10 -28 -10 -17 0 -18 -24 -18 -475 l0 -475 1800 0 1800 0 0 1800 0
1800 -1800 0 -1800 0 0 -1310z m2515 -210 c-3 -5 1 -10 9 -10 12 0 16 -12 17
-52 1 -42 3 -48 9 -28 6 20 8 14 10 -30 2 -30 6 -125 10 -210 l6 -155 2 124
c1 68 4 122 7 120 4 -5 29 -239 39 -379 3 -36 12 -130 21 -210 31 -295 35
-360 24 -360 -5 0 -10 15 -11 33 l-1 32 -4 -32 c-5 -37 -22 -45 -24 -10 l-2
22 -4 -22 c-6 -29 -23 -30 -23 -1 0 21 0 21 -15 2 -11 -14 -15 -16 -15 -4 0
11 -4 10 -12 -5 -11 -19 -11 -19 -19 0 -7 17 -8 18 -8 3 -1 -17 -11 -20 -71
-20 -58 0 -60 1 -61 40 -2 33 -2 34 -6 7 -6 -42 -23 -56 -23 -20 0 17 7 98 16
180 8 83 17 170 19 195 2 25 7 68 10 95 l6 50 -30 -57 c-28 -51 -51 -80 -51
-63 0 7 67 133 80 150 8 10 24 165 35 325 3 47 11 130 18 185 l12 100 6 -60 6
-60 1 61 c2 54 7 74 19 74 2 0 1 -4 -2 -10z m245 -600 c21 -25 76 -90 122
-145 45 -55 94 -110 108 -122 14 -12 19 -23 12 -23 -7 0 -15 6 -18 13 -3 8
-11 14 -19 14 -18 0 -18 3 0 -40 24 -59 16 -57 -11 2 -25 55 -31 77 -14 51 7
-10 10 -11 10 -2 0 7 -8 16 -17 19 -10 4 -24 14 -31 22 -9 12 -9 8 1 -14 21
-45 60 -166 54 -171 -2 -2 -14 26 -27 63 -12 38 -31 85 -42 106 -10 21 -16 42
-13 48 4 5 2 8 -4 7 -5 -2 -17 6 -26 17 -9 11 -5 -3 9 -32 27 -54 91 -272 83
-280 -3 -2 -8 9 -12 26 -27 123 -81 255 -157 381 -91 151 -99 166 -68 130 11
-14 38 -45 60 -70z m-419 -91 c-45 -89 -81 -155 -81 -148 1 30 147 325 157
316 3 -3 -31 -78 -76 -168z m343 94 c9 -18 14 -33 12 -33 -6 0 -36 55 -36 66
0 11 5 3 24 -33z m-361 12 c-3 -9 -8 -14 -10 -11 -3 3 -2 9 2 15 9 16 15 13 8
-4z m-61 -102 c-26 -43 -59 -105 -72 -137 -13 -33 -25 -55 -27 -49 -8 23 118
263 139 263 4 0 -14 -35 -40 -77z m-9 42 c-3 -9 -8 -14 -10 -11 -3 3 -2 9 2
15 9 16 15 13 8 -4z m505 -82 c17 -38 34 -81 37 -98 3 -16 -5 -5 -18 27 -13
31 -36 76 -51 101 -29 50 -33 65 -12 48 7 -6 27 -41 44 -78z m-564 -8 c-20
-30 -39 -55 -41 -55 -6 0 36 70 55 93 28 32 22 17 -14 -38z m510 29 c10 -25
-1 -29 -14 -5 -6 12 -7 21 -1 21 5 0 12 -7 15 -16z m-50 -10 c3 -8 2 -12 -4
-9 -6 3 -10 10 -10 16 0 14 7 11 14 -7z m-254 -73 c0 -6 -4 -12 -9 -16 -6 -3
-20 -38 -31 -78 -29 -96 -31 -99 -25 -50 6 53 43 153 56 153 5 0 9 -4 9 -9z
m-75 -41 c-8 -21 -21 -78 -31 -125 -20 -101 -32 -107 -15 -8 16 90 40 173 51
173 5 0 3 -18 -5 -40z m-162 -80 c-3 -11 -10 -23 -16 -27 -7 -4 -8 0 -4 11 4
10 7 22 7 27 0 5 4 9 9 9 5 0 7 -9 4 -20z m61 -136 c-24 -102 -29 -86 -7 21
10 49 20 80 21 70 2 -9 -4 -50 -14 -91z m-634 92 c0 -3 -4 -8 -10 -11 -5 -3
-10 -1 -10 4 0 6 5 11 10 11 6 0 10 -2 10 -4z m544 -40 c-3 -15 -8 -25 -11
-23 -2 3 -1 17 3 31 3 15 8 25 11 23 2 -3 1 -17 -3 -31z m-649 -6 c3 -6 -1 -7
-9 -4 -18 7 -21 14 -7 14 6 0 13 -4 16 -10z m-350 -50 c3 -5 2 -10 -4 -10 -5
0 -13 5 -16 10 -3 6 -2 10 4 10 5 0 13 -4 16 -10z m-565 -20 c0 -5 -11 -10
-24 -10 -14 0 -28 5 -31 10 -4 6 7 10 24 10 17 0 31 -4 31 -10z m448 3 c-10
-2 -28 -2 -40 0 -13 2 -5 4 17 4 22 1 32 -1 23 -4z m-263 -12 c-3 -5 5 -12 17
-14 13 -2 -8 -5 -45 -6 -38 0 -66 -5 -63 -10 7 -10 -151 -3 -172 8 -12 7 -12
9 2 14 10 4 15 3 11 -3 -9 -15 98 -12 114 3 11 10 13 10 7 0 -8 -14 25 -19 38
-6 4 4 22 6 41 5 18 -2 36 1 40 7 3 6 8 11 11 11 3 0 3 -4 -1 -9z m150 -1 c38
-7 37 -8 -17 -6 -32 1 -61 5 -64 9 -10 9 31 8 81 -3z m168 3 c-7 -2 -19 -2
-25 0 -7 3 -2 5 12 5 14 0 19 -2 13 -5z m172 -3 c3 -5 0 -10 -7 -10 -7 0 -25
-19 -40 -43 -22 -33 -28 -37 -28 -21 0 12 7 24 15 28 8 3 20 17 27 31 12 26
23 31 33 15z m39 -52 c-44 -62 -66 -86 -38 -43 42 66 69 103 73 100 2 -2 -14
-28 -35 -57z m-314 37 c11 -13 10 -14 -4 -9 -9 3 -16 10 -16 15 0 13 6 11 20
-6z m145 5 c3 -6 -1 -7 -9 -4 -18 7 -21 14 -7 14 6 0 13 -4 16 -10z m-285 -16
c0 -2 -10 -13 -22 -26 -13 -13 -38 -41 -56 -62 -18 -21 -36 -36 -39 -33 -3 3
17 30 45 59 27 29 47 59 45 66 -3 7 1 10 11 6 9 -3 16 -8 16 -10z m159 -58
c-24 -30 -48 -55 -52 -56 -5 0 13 27 39 60 26 33 49 58 52 55 3 -2 -15 -29
-39 -59z m-540 50 c-10 -10 -128 -15 -134 -6 -4 6 21 10 66 10 40 0 70 -2 68
-4z m48 -7 c9 -9 -1 -24 -38 -61 -28 -28 -52 -48 -55 -46 -2 2 16 24 41 48 40
39 43 45 27 56 -14 11 -15 13 -1 14 8 0 20 -5 26 -11z m616 -2 c-36 -57 -67
-97 -76 -97 -6 0 -4 8 4 18 8 9 27 34 43 55 25 34 47 53 29 24z m-1016 -62
c-33 -29 -44 -44 -35 -48 7 -3 1 -6 -14 -6 -16 -1 -28 2 -27 7 0 11 113 101
119 95 3 -3 -17 -24 -43 -48z m432 6 c-24 -27 -51 -49 -59 -50 -8 -1 8 22 35
49 63 64 81 65 24 1z m201 32 c-15 -27 -70 -88 -70 -80 0 8 71 97 77 97 2 0
-1 -8 -7 -17z m-566 -47 c-27 -25 -53 -45 -59 -45 -5 0 14 22 44 50 29 28 56
48 58 45 3 -3 -16 -26 -43 -50z m146 -1 c-24 -25 -46 -42 -49 -40 -3 3 15 25
39 50 24 25 46 42 49 40 3 -3 -15 -25 -39 -50z m274 12 c-22 -24 -41 -42 -43
-41 -5 4 63 84 73 84 5 0 -9 -19 -30 -43z m634 8 c-13 -19 -26 -35 -31 -35 -4
0 3 16 15 35 13 19 26 35 31 35 4 0 -3 -16 -15 -35z m116 -10 c-9 -14 -18 -25
-21 -25 -5 0 5 18 20 38 17 22 18 13 1 -13z m-964 -15 c-12 -16 -26 -30 -33
-30 -6 0 2 14 18 30 16 17 30 30 33 30 2 0 -6 -13 -18 -30z m538 0 c-7 -11
-17 -20 -22 -20 -5 0 -1 9 9 20 10 11 20 20 22 20 2 0 -2 -9 -9 -20z m202 6
c0 -2 -8 -10 -17 -17 -16 -13 -17 -12 -4 4 13 16 21 21 21 13z m1077 -2 c-3
-3 -12 -4 -19 -1 -8 3 -5 6 6 6 11 1 17 -2 13 -5z m793 -118 c0 -5 -7 -1 -15
10 -8 10 -14 24 -14 29 0 6 6 1 14 -9 8 -11 15 -24 15 -30z m-533 -68 c-3 -8
-6 -5 -6 6 -1 11 2 17 5 13 3 -3 4 -12 1 -19z"/>
<path d="M2542 1940 c0 -14 2 -19 5 -12 2 6 2 18 0 25 -3 6 -5 1 -5 -13z"/>
</g>
</svg>
